<svg width="34" height="34" viewBox="0 0 34 34" fill="none" xmlns="http://www.w3.org/2000/svg">
<g clip-path="url(#clip0_131_492)">
<path d="M23.5027 10.7383L14.1668 20.0742L9.081 15.0025L7.0835 17L14.1668 24.0833L25.5002 12.75L23.5027 10.7383ZM17.0002 2.83334C9.18016 2.83334 2.8335 9.18 2.8335 17C2.8335 24.82 9.18016 31.1667 17.0002 31.1667C24.8202 31.1667 31.1668 24.82 31.1668 17C31.1668 9.18 24.8202 2.83334 17.0002 2.83334ZM17.0002 28.3333C10.7385 28.3333 5.66683 23.2617 5.66683 17C5.66683 10.7383 10.7385 5.66667 17.0002 5.66667C23.2618 5.66667 28.3335 10.7383 28.3335 17C28.3335 23.2617 23.2618 28.3333 17.0002 28.3333Z" fill="#27AE60"/>
</g>
<defs>
<clipPath id="clip0_131_492">
<rect width="34" height="34" fill="white"/>
</clipPath>
</defs>
</svg>
