<svg width="244" height="56" viewBox="0 0 244 56" fill="none" xmlns="http://www.w3.org/2000/svg">
<g clip-path="url(#clip0_103_109)">
<path d="M13.344 29.48C17.408 29.48 20.8 28.104 23.232 26.12V15.752H12.384V20.552H16.224V22.792C15.648 23.112 14.944 23.304 13.664 23.304C10.528 23.304 8.32 21.128 8.32 17.96V17.896C8.32 14.856 10.432 12.616 13.344 12.616C15.2 12.616 16.832 13.32 18.304 14.568L22.496 9.512C20.064 7.4 16.96 6.12 13.12 6.12C6.048 6.12 0.768 11.112 0.768 17.8V17.864C0.768 24.808 6.368 29.48 13.344 29.48ZM39.101 29.448C45.789 29.448 50.237 26.44 50.237 18.792V6.6H42.621V19.016C42.621 21.736 41.181 22.824 39.165 22.824C37.149 22.824 35.709 21.64 35.709 18.856V6.6H28.093V18.952C28.093 26.376 32.413 29.448 39.101 29.448ZM55.5415 29H63.0295V6.6H55.5415V29ZM80.958 29H85.886V22.28H89.63C94.654 22.28 98.686 19.592 98.686 14.408V14.344C98.686 9.768 95.454 6.6 90.11 6.6H80.958V29ZM85.886 17.896V11.048H89.694C92.158 11.048 93.694 12.232 93.694 14.44V14.504C93.694 16.424 92.254 17.896 89.79 17.896H85.886ZM105.437 29H110.365V6.6H105.437V29ZM129.627 29.384C133.723 29.384 136.891 27.784 139.195 25.832V16.104H129.467V20.36H134.427V23.56C133.179 24.456 131.579 24.904 129.787 24.904C125.819 24.904 123.003 21.896 123.003 17.8V17.736C123.003 13.928 125.851 10.76 129.435 10.76C132.027 10.76 133.563 11.592 135.291 13.032L138.395 9.288C136.059 7.304 133.627 6.216 129.595 6.216C122.811 6.216 117.851 11.432 117.851 17.8V17.864C117.851 24.488 122.651 29.384 129.627 29.384ZM146.817 29H151.681V14.76L162.529 29H166.721V6.6H161.857V20.392L151.361 6.6H146.817V29ZM173.058 29H178.082L180.13 23.976H189.602L191.65 29H196.802L187.202 6.44H182.658L173.058 29ZM181.89 19.624L184.866 12.36L187.842 19.624H181.89ZM205.48 29H210.408V11.144H217.224V6.6H198.664V11.144H205.48V29ZM219.099 29H224.123L226.171 23.976H235.643L237.691 29H242.843L233.243 6.44H228.699L219.099 29ZM227.931 19.624L230.907 12.36L233.883 19.624H227.931Z" fill="white"/>
<path d="M1.6321 54V46.7273H3.16974V49.728H6.29119V46.7273H7.82528V54H6.29119V50.9957H3.16974V54H1.6321ZM10.793 54V46.7273H15.6936V47.995H12.3307V49.728H15.4415V50.9957H12.3307V52.7322H15.7078V54H10.793ZM19.8696 54H18.2219L20.7326 46.7273H22.7141L25.2212 54H23.5735L21.7517 48.3892H21.6949L19.8696 54ZM19.7667 51.1413H23.6587V52.3416H19.7667V51.1413ZM27.7966 54V46.7273H29.3342V52.7322H32.4521V54H27.7966ZM33.9852 47.995V46.7273H39.9582V47.995H37.7316V54H36.2118V47.995H33.9852ZM42.6419 54V46.7273H44.1795V49.728H47.301V46.7273H48.835V54H47.301V50.9957H44.1795V54H42.6419ZM62.2342 49.2734H60.6788C60.6504 49.0722 60.5924 48.8935 60.5048 48.7372C60.4172 48.5786 60.3047 48.4437 60.1674 48.3324C60.0301 48.2211 59.8715 48.1359 59.6915 48.0767C59.514 48.0175 59.321 47.9879 59.1127 47.9879C58.7363 47.9879 58.4084 48.0814 58.129 48.2685C57.8497 48.4531 57.6331 48.723 57.4792 49.0781C57.3253 49.4309 57.2484 49.8594 57.2484 50.3636C57.2484 50.8821 57.3253 51.3177 57.4792 51.6705C57.6354 52.0232 57.8532 52.2895 58.1326 52.4695C58.412 52.6494 58.7351 52.7393 59.1021 52.7393C59.308 52.7393 59.4986 52.7121 59.6738 52.6577C59.8514 52.6032 60.0088 52.5239 60.1461 52.4197C60.2834 52.3132 60.397 52.1842 60.487 52.0327C60.5793 51.8812 60.6433 51.7083 60.6788 51.5142L62.2342 51.5213C62.1939 51.8551 62.0933 52.1771 61.9323 52.4872C61.7737 52.795 61.5594 53.0708 61.2896 53.3146C61.022 53.5561 60.7024 53.7479 60.3308 53.8899C59.9614 54.0296 59.5436 54.0994 59.0772 54.0994C58.4285 54.0994 57.8485 53.9527 57.3371 53.6591C56.8282 53.3655 56.4257 52.9406 56.1298 52.3842C55.8362 51.8279 55.6894 51.1544 55.6894 50.3636C55.6894 49.5705 55.8386 48.8958 56.1369 48.3395C56.4352 47.7831 56.84 47.3594 57.3514 47.0682C57.8627 46.7746 58.438 46.6278 59.0772 46.6278C59.4986 46.6278 59.8892 46.687 60.2491 46.8054C60.6113 46.9238 60.9321 47.0966 61.2114 47.3239C61.4908 47.5488 61.7181 47.8246 61.8933 48.1513C62.0708 48.478 62.1844 48.852 62.2342 49.2734ZM71.72 50.3636C71.72 51.1567 71.5697 51.8314 71.269 52.3878C70.9707 52.9441 70.5635 53.3691 70.0474 53.6626C69.5337 53.9538 68.9561 54.0994 68.3145 54.0994C67.6682 54.0994 67.0882 53.9527 66.5744 53.6591C66.0607 53.3655 65.6547 52.9406 65.3564 52.3842C65.0581 51.8279 64.9089 51.1544 64.9089 50.3636C64.9089 49.5705 65.0581 48.8958 65.3564 48.3395C65.6547 47.7831 66.0607 47.3594 66.5744 47.0682C67.0882 46.7746 67.6682 46.6278 68.3145 46.6278C68.9561 46.6278 69.5337 46.7746 70.0474 47.0682C70.5635 47.3594 70.9707 47.7831 71.269 48.3395C71.5697 48.8958 71.72 49.5705 71.72 50.3636ZM70.1611 50.3636C70.1611 49.8499 70.0841 49.4167 69.9303 49.0639C69.7787 48.7112 69.5645 48.4437 69.2875 48.2614C69.0105 48.0791 68.6862 47.9879 68.3145 47.9879C67.9428 47.9879 67.6185 48.0791 67.3415 48.2614C67.0645 48.4437 66.8491 48.7112 66.6952 49.0639C66.5437 49.4167 66.4679 49.8499 66.4679 50.3636C66.4679 50.8774 66.5437 51.3106 66.6952 51.6634C66.8491 52.0161 67.0645 52.2836 67.3415 52.4659C67.6185 52.6482 67.9428 52.7393 68.3145 52.7393C68.6862 52.7393 69.0105 52.6482 69.2875 52.4659C69.5645 52.2836 69.7787 52.0161 69.9303 51.6634C70.0841 51.3106 70.1611 50.8774 70.1611 50.3636ZM75.4025 54H73.7547L76.2654 46.7273H78.2469L80.754 54H79.1063L77.2846 48.3892H77.2277L75.4025 54ZM75.2995 51.1413H79.1915V52.3416H75.2995V51.1413ZM89.4045 49.2734H87.8491C87.8207 49.0722 87.7627 48.8935 87.6751 48.7372C87.5875 48.5786 87.475 48.4437 87.3377 48.3324C87.2004 48.2211 87.0418 48.1359 86.8619 48.0767C86.6843 48.0175 86.4914 47.9879 86.283 47.9879C85.9066 47.9879 85.5787 48.0814 85.2994 48.2685C85.02 48.4531 84.8034 48.723 84.6495 49.0781C84.4956 49.4309 84.4187 49.8594 84.4187 50.3636C84.4187 50.8821 84.4956 51.3177 84.6495 51.6705C84.8058 52.0232 85.0236 52.2895 85.3029 52.4695C85.5823 52.6494 85.9054 52.7393 86.2724 52.7393C86.4783 52.7393 86.6689 52.7121 86.8441 52.6577C87.0217 52.6032 87.1791 52.5239 87.3164 52.4197C87.4537 52.3132 87.5674 52.1842 87.6573 52.0327C87.7496 51.8812 87.8136 51.7083 87.8491 51.5142L89.4045 51.5213C89.3642 51.8551 89.2636 52.1771 89.1026 52.4872C88.944 52.795 88.7298 53.0708 88.4599 53.3146C88.1924 53.5561 87.8728 53.7479 87.5011 53.8899C87.1317 54.0296 86.7139 54.0994 86.2475 54.0994C85.5988 54.0994 85.0188 53.9527 84.5075 53.6591C83.9985 53.3655 83.596 52.9406 83.3001 52.3842C83.0065 51.8279 82.8597 51.1544 82.8597 50.3636C82.8597 49.5705 83.0089 48.8958 83.3072 48.3395C83.6055 47.7831 84.0103 47.3594 84.5217 47.0682C85.033 46.7746 85.6083 46.6278 86.2475 46.6278C86.6689 46.6278 87.0595 46.687 87.4194 46.8054C87.7816 46.9238 88.1024 47.0966 88.3817 47.3239C88.6611 47.5488 88.8884 47.8246 89.0636 48.1513C89.2411 48.478 89.3548 48.852 89.4045 49.2734ZM92.2071 54V46.7273H93.7447V49.728H96.8662V46.7273H98.4003V54H96.8662V50.9957H93.7447V54H92.2071ZM107.584 54.1065C107.082 54.1065 106.649 54.0166 106.284 53.8366C105.92 53.6567 105.639 53.4129 105.443 53.1051C105.249 52.795 105.152 52.4493 105.152 52.0682C105.152 51.7841 105.208 51.532 105.322 51.3118C105.436 51.0916 105.594 50.8892 105.798 50.7045C106.002 50.5175 106.238 50.3317 106.508 50.147L107.918 49.2202C108.1 49.1042 108.234 48.9822 108.319 48.8544C108.405 48.7242 108.447 48.5833 108.447 48.4318C108.447 48.2874 108.389 48.1536 108.273 48.0305C108.157 47.9074 107.993 47.8471 107.78 47.8494C107.637 47.8494 107.514 47.8814 107.41 47.9453C107.306 48.0069 107.224 48.0885 107.165 48.1903C107.108 48.2898 107.08 48.401 107.08 48.5241C107.08 48.6757 107.123 48.8295 107.208 48.9858C107.293 49.142 107.407 49.3078 107.549 49.483C107.691 49.6558 107.846 49.8428 108.014 50.044L111.462 54H109.885L107.009 50.7969C106.82 50.5814 106.63 50.3565 106.441 50.1222C106.254 49.8854 106.097 49.6345 105.972 49.3693C105.847 49.1018 105.784 48.8118 105.784 48.4993C105.784 48.1465 105.865 47.8293 106.029 47.5476C106.195 47.2659 106.427 47.0433 106.725 46.88C107.023 46.7143 107.371 46.6314 107.769 46.6314C108.157 46.6314 108.492 46.7107 108.774 46.8693C109.058 47.0256 109.276 47.2339 109.427 47.4943C109.581 47.7524 109.658 48.0365 109.658 48.3466C109.658 48.6899 109.573 49.0012 109.402 49.2805C109.234 49.5575 108.998 49.8061 108.692 50.0263L107.208 51.0952C107.007 51.242 106.857 51.3923 106.76 51.5462C106.666 51.6977 106.618 51.8433 106.618 51.983C106.618 52.1558 106.661 52.3108 106.746 52.4482C106.831 52.5855 106.952 52.6944 107.108 52.7749C107.265 52.853 107.448 52.892 107.659 52.892C107.914 52.892 108.167 52.834 108.415 52.718C108.666 52.5997 108.893 52.4328 109.097 52.2173C109.303 51.9995 109.467 51.7415 109.591 51.4432C109.714 51.1449 109.775 50.8146 109.775 50.4524H111.029C111.029 50.8975 110.98 51.2988 110.883 51.6562C110.786 52.0114 110.651 52.3215 110.478 52.5866C110.306 52.8494 110.108 53.0649 109.885 53.233C109.814 53.2779 109.746 53.3205 109.679 53.3608C109.613 53.401 109.544 53.4437 109.473 53.4886C109.204 53.7064 108.902 53.8639 108.568 53.9609C108.236 54.058 107.909 54.1065 107.584 54.1065ZM117.835 54V46.7273H120.705C121.256 46.7273 121.726 46.8326 122.114 47.0433C122.503 47.2517 122.799 47.5417 123.002 47.9134C123.208 48.2827 123.311 48.7088 123.311 49.1918C123.311 49.6747 123.207 50.1009 122.999 50.4702C122.79 50.8395 122.488 51.1271 122.093 51.3331C121.7 51.5391 121.224 51.642 120.665 51.642H118.837V50.4098H120.417C120.713 50.4098 120.957 50.3589 121.148 50.2571C121.343 50.1529 121.487 50.0097 121.582 49.8274C121.679 49.6428 121.727 49.4309 121.727 49.1918C121.727 48.9503 121.679 48.7396 121.582 48.5597C121.487 48.3774 121.343 48.2365 121.148 48.1371C120.954 48.0353 120.708 47.9844 120.41 47.9844H119.373V54H117.835ZM126.01 54V46.7273H130.91V47.995H127.547V49.728H130.658V50.9957H127.547V52.7322H130.925V54H126.01ZM133.833 54V46.7273H136.702C137.251 46.7273 137.72 46.8255 138.108 47.022C138.499 47.2161 138.796 47.492 139 47.8494C139.206 48.2045 139.309 48.6224 139.309 49.103C139.309 49.5859 139.205 50.0014 138.996 50.3494C138.788 50.6951 138.486 50.9602 138.091 51.1449C137.698 51.3295 137.222 51.4219 136.663 51.4219H134.742V50.1861H136.415C136.708 50.1861 136.952 50.1458 137.146 50.0653C137.34 49.9848 137.485 49.8641 137.579 49.7031C137.676 49.5421 137.725 49.3421 137.725 49.103C137.725 48.8615 137.676 48.6579 137.579 48.4922C137.485 48.3265 137.339 48.201 137.143 48.1158C136.948 48.0282 136.703 47.9844 136.407 47.9844H135.371V54H133.833ZM137.76 50.6903L139.568 54H137.871L136.102 50.6903H137.76ZM146.041 48.8189C146.012 48.5324 145.89 48.3099 145.675 48.1513C145.459 47.9927 145.167 47.9134 144.798 47.9134C144.547 47.9134 144.335 47.9489 144.162 48.0199C143.989 48.0885 143.857 48.1844 143.764 48.3075C143.674 48.4306 143.629 48.5703 143.629 48.7266C143.625 48.8568 143.652 48.9704 143.711 49.0675C143.773 49.1645 143.857 49.2486 143.963 49.3196C144.07 49.3883 144.193 49.4486 144.333 49.5007C144.472 49.5504 144.621 49.593 144.78 49.6286L145.433 49.7848C145.751 49.8558 146.042 49.9505 146.307 50.0689C146.572 50.1873 146.802 50.3329 146.996 50.5057C147.19 50.6785 147.34 50.8821 147.447 51.1165C147.556 51.3509 147.611 51.6196 147.614 51.9226C147.611 52.3677 147.498 52.7536 147.273 53.0803C147.05 53.4046 146.728 53.6567 146.307 53.8366C145.888 54.0142 145.383 54.103 144.791 54.103C144.204 54.103 143.692 54.013 143.257 53.8331C142.823 53.6532 142.485 53.3868 142.241 53.0341C142 52.679 141.873 52.2398 141.861 51.7166H143.349C143.366 51.9605 143.435 52.1641 143.558 52.3274C143.684 52.4884 143.851 52.6103 144.059 52.6932C144.27 52.7737 144.508 52.8139 144.773 52.8139C145.033 52.8139 145.259 52.776 145.451 52.7003C145.645 52.6245 145.796 52.5192 145.902 52.3842C146.009 52.2493 146.062 52.0942 146.062 51.919C146.062 51.7557 146.013 51.6184 145.916 51.5071C145.822 51.3958 145.682 51.3011 145.497 51.223C145.315 51.1449 145.091 51.0739 144.826 51.0099L144.034 50.8111C143.421 50.6619 142.937 50.4287 142.582 50.1115C142.227 49.7943 142.05 49.367 142.053 48.8295C142.05 48.3892 142.168 48.0045 142.404 47.6754C142.643 47.3464 142.971 47.0895 143.388 46.9048C143.805 46.7202 144.278 46.6278 144.808 46.6278C145.348 46.6278 145.819 46.7202 146.222 46.9048C146.627 47.0895 146.942 47.3464 147.166 47.6754C147.391 48.0045 147.507 48.3857 147.514 48.8189H146.041ZM157.031 50.3636C157.031 51.1567 156.881 51.8314 156.58 52.3878C156.282 52.9441 155.875 53.3691 155.359 53.6626C154.845 53.9538 154.267 54.0994 153.626 54.0994C152.98 54.0994 152.399 53.9527 151.886 53.6591C151.372 53.3655 150.966 52.9406 150.668 52.3842C150.369 51.8279 150.22 51.1544 150.22 50.3636C150.22 49.5705 150.369 48.8958 150.668 48.3395C150.966 47.7831 151.372 47.3594 151.886 47.0682C152.399 46.7746 152.98 46.6278 153.626 46.6278C154.267 46.6278 154.845 46.7746 155.359 47.0682C155.875 47.3594 156.282 47.7831 156.58 48.3395C156.881 48.8958 157.031 49.5705 157.031 50.3636ZM155.472 50.3636C155.472 49.8499 155.395 49.4167 155.242 49.0639C155.09 48.7112 154.876 48.4437 154.599 48.2614C154.322 48.0791 153.998 47.9879 153.626 47.9879C153.254 47.9879 152.93 48.0791 152.653 48.2614C152.376 48.4437 152.16 48.7112 152.007 49.0639C151.855 49.4167 151.779 49.8499 151.779 50.3636C151.779 50.8774 151.855 51.3106 152.007 51.6634C152.16 52.0161 152.376 52.2836 152.653 52.4659C152.93 52.6482 153.254 52.7393 153.626 52.7393C153.998 52.7393 154.322 52.6482 154.599 52.4659C154.876 52.2836 155.09 52.0161 155.242 51.6634C155.395 51.3106 155.472 50.8774 155.472 50.3636ZM165.953 46.7273V54H164.625L161.461 49.4226H161.408V54H159.87V46.7273H161.22L164.359 51.3011H164.423V46.7273H165.953ZM170.177 54H168.53L171.04 46.7273H173.022L175.529 54H173.881L172.06 48.3892H172.003L170.177 54ZM170.074 51.1413H173.967V52.3416H170.074V51.1413ZM178.104 54V46.7273H179.642V52.7322H182.76V54H178.104ZM189.216 47.995V46.7273H195.189V47.995H192.962V54H191.442V47.995H189.216ZM197.872 54V46.7273H200.742C201.291 46.7273 201.76 46.8255 202.148 47.022C202.539 47.2161 202.836 47.492 203.039 47.8494C203.245 48.2045 203.348 48.6224 203.348 49.103C203.348 49.5859 203.244 50.0014 203.036 50.3494C202.827 50.6951 202.526 50.9602 202.13 51.1449C201.737 51.3295 201.261 51.4219 200.703 51.4219H198.781V50.1861H200.454C200.748 50.1861 200.991 50.1458 201.186 50.0653C201.38 49.9848 201.524 49.8641 201.619 49.7031C201.716 49.5421 201.764 49.3421 201.764 49.103C201.764 48.8615 201.716 48.6579 201.619 48.4922C201.524 48.3265 201.378 48.201 201.182 48.1158C200.988 48.0282 200.743 47.9844 200.447 47.9844H199.41V54H197.872ZM201.8 50.6903L203.607 54H201.91L200.142 50.6903H201.8ZM207.388 54H205.741L208.251 46.7273H210.233L212.74 54H211.092L209.27 48.3892H209.214L207.388 54ZM207.285 51.1413H211.177V52.3416H207.285V51.1413ZM216.853 46.7273V54H215.315V46.7273H216.853ZM225.901 46.7273V54H224.573L221.409 49.4226H221.356V54H219.818V46.7273H221.167L224.307 51.3011H224.371V46.7273H225.901ZM228.872 54V46.7273H233.772V47.995H230.409V49.728H233.52V50.9957H230.409V52.7322H233.786V54H228.872ZM236.695 54V46.7273H239.564C240.113 46.7273 240.582 46.8255 240.97 47.022C241.361 47.2161 241.658 47.492 241.862 47.8494C242.067 48.2045 242.17 48.6224 242.17 49.103C242.17 49.5859 242.066 50.0014 241.858 50.3494C241.65 50.6951 241.348 50.9602 240.952 51.1449C240.559 51.3295 240.084 51.4219 239.525 51.4219H237.604V50.1861H239.276C239.57 50.1861 239.814 50.1458 240.008 50.0653C240.202 49.9848 240.346 49.8641 240.441 49.7031C240.538 49.5421 240.587 49.3421 240.587 49.103C240.587 48.8615 240.538 48.6579 240.441 48.4922C240.346 48.3265 240.201 48.201 240.004 48.1158C239.81 48.0282 239.565 47.9844 239.269 47.9844H238.232V54H236.695ZM240.622 50.6903L242.43 54H240.732L238.964 50.6903H240.622Z" fill="white"/>
</g>
<defs>
<clipPath id="clip0_103_109">
<rect width="244" height="56" fill="white"/>
</clipPath>
</defs>
</svg>
